<svg xmlns="http://www.w3.org/2000/svg" width="68" height="67" viewBox="0 0 68 67"><defs><style>.a{fill:#cdcffe;}.b{fill:#4e5c6e;}</style></defs><g transform="translate(0.499)"><rect class="a" width="68" height="67" rx="13" transform="translate(-0.499)"/><g transform="translate(14.298 13.839)"><path class="b" d="M383.016,463.1H365.929a2.477,2.477,0,0,1-2.7-2.69q0-4.809,0-9.618a2.475,2.475,0,0,1,4.061-1.935,2.222,2.222,0,0,1,.851,1.577c.039.452.028.908.029,1.363q0,2.95,0,5.9c0,.464,0,.465.452.465h25.886c.978,0,1.955-.011,2.933.007.293.006.383-.062.381-.372q-.021-3.513,0-7.025a2.462,2.462,0,0,1,3.476-2.278,2.322,2.322,0,0,1,1.467,2.2q.039,4.962,0,9.924a2.439,2.439,0,0,1-2.562,2.481Q391.611,463.1,383.016,463.1Z" transform="translate(-363.231 -423.554)"/><path class="b" d="M413.952,333.319a.612.612,0,0,1-.306-.226q-2.667-2.663-5.333-5.326a2.363,2.363,0,0,0-2.474-.645,2.337,2.337,0,0,0-1.7,1.823,2.421,2.421,0,0,0,.727,2.363q4.258,4.252,8.511,8.509c.426.426.849.855,1.28,1.276a2.439,2.439,0,0,0,3.517.02q4.954-4.93,9.885-9.883a2.469,2.469,0,1,0-3.5-3.485c-1.794,1.774-3.571,3.565-5.357,5.347a.535.535,0,0,1-.3.218v-.4q0-9.072,0-18.144a2.47,2.47,0,0,0-4.926-.338c-.016.192-.016.386-.016.579q0,8.953,0,17.905Z" transform="translate(-396.654 -312.186)"/></g></g></svg>