<svg xmlns="http://www.w3.org/2000/svg" width="8.392" height="13.561" viewBox="0 0 8.392 13.561"><defs><style>.a{fill:#4e5c6e;}</style></defs><g transform="translate(0 0)"><path class="a" d="M-858.913,454.189c-.4-.4-.755-.736-1.1-1.083q-1.553-1.55-3.1-3.1a1.147,1.147,0,0,1,0-1.713c.179-.183.356-.368.546-.538a1.123,1.123,0,0,1,1.582.028q2.616,2.6,5.218,5.217a1.5,1.5,0,0,1,.481.643,1.171,1.171,0,0,1,.045.862,1.332,1.332,0,0,1-.467.849q-2.625,2.621-5.247,5.244a1.171,1.171,0,0,1-1.762.013c-.164-.16-.326-.324-.487-.487a1.177,1.177,0,0,1,.006-1.722q2.03-2.033,4.065-4.06A1.523,1.523,0,0,1-858.913,454.189Z" transform="translate(863.581 -447.44)"/></g></svg>