<svg xmlns="http://www.w3.org/2000/svg" width="20.254" height="20.251" viewBox="0 0 20.254 20.251"><defs><style>.a{fill:#707070;}</style></defs><g transform="translate(0 0)"><path class="a" d="M338.175,666.3a7.223,7.223,0,1,1,13.271,3.971c-.034.052-.029.074.014.117q.868.86,1.73,1.726l3.09,3.091q.852.852,1.7,1.7a1.385,1.385,0,0,1,.437,1.157,1.36,1.36,0,0,1-.464.917,1.42,1.42,0,0,1-1.948-.083c-.972-.99-1.958-1.967-2.94-2.949q-1.767-1.767-3.537-3.533c-.1-.1-.1-.1-.228-.025a7.23,7.23,0,0,1-10.319-2.755,6.994,6.994,0,0,1-.747-2.364A6.549,6.549,0,0,1,338.175,666.3Zm1.244.007a5.985,5.985,0,1,0,6.152-5.986A5.977,5.977,0,0,0,339.419,666.3Z" transform="translate(-338.174 -659.073)"/><path class="a" d="M377.28,679.95a5.233,5.233,0,0,1,1.977.376.346.346,0,0,1,.2.444.338.338,0,0,1-.442.2,4.851,4.851,0,0,0-1.1-.291,4.491,4.491,0,0,0-3.765,1.263.343.343,0,0,1-.5.016.351.351,0,0,1,.015-.507,5.129,5.129,0,0,1,2.834-1.437A5.3,5.3,0,0,1,377.28,679.95Z" transform="translate(-370.086 -677.907)"/><path class="a" d="M455.386,712.836a.715.715,0,0,1-.012.243.341.341,0,0,1-.378.242.327.327,0,0,1-.294-.326,4.682,4.682,0,0,0-.329-1.7.34.34,0,0,1,.108-.409.357.357,0,0,1,.411-.005.413.413,0,0,1,.139.2A5.288,5.288,0,0,1,455.386,712.836Z" transform="translate(-442.975 -705.753)"/></g></svg>