<svg xmlns="http://www.w3.org/2000/svg" width="42.051" height="42.051" viewBox="0 0 42.051 42.051"><defs><style>.a{fill:#4e5c6e;}</style></defs><g transform="translate(0)"><path class="a" d="M268.771,1014.479v-2.464a2.827,2.827,0,0,1-.07-.354,19.78,19.78,0,0,0-2.4-8.28,20.8,20.8,0,0,0-14.889-10.835c-.806-.157-1.627-.178-2.432-.322h-2.464a2.25,2.25,0,0,1-.317.067,19.465,19.465,0,0,0-8.285,2.39,20.639,20.639,0,0,0-11.155,17.689,19.254,19.254,0,0,0,2.442,10.74,20.612,20.612,0,0,0,17.665,11.125,19.492,19.492,0,0,0,10.743-2.435,20.767,20.767,0,0,0,10.84-14.893C268.605,1016.1,268.63,1015.284,268.771,1014.479Zm-27.874,2.3c-1.012,0-2.025,0-3.037,0a1.538,1.538,0,0,1-1.685-1.682c0-1.2,0-2.408,0-3.612a1.563,1.563,0,0,1,1.767-1.765c2.025,0,4.049-.006,6.074.006.281,0,.375-.065.369-.36-.019-.944-.012-1.888-.006-2.832a1.518,1.518,0,0,1,2.409-1.39q5.811,3.342,11.609,6.705a1.521,1.521,0,0,1,0,2.8q-5.8,3.362-11.609,6.705a1.518,1.518,0,0,1-2.41-1.388c-.006-.944-.013-1.888.006-2.832.006-.293-.085-.366-.368-.362C242.977,1016.786,241.937,1016.777,240.9,1016.776Z" transform="translate(-226.72 -992.224)"/></g></svg>