<svg xmlns="http://www.w3.org/2000/svg" width="22.442" height="22.442" viewBox="0 0 22.442 22.442"><defs><style>.a{fill:#c6c9f9;stroke:#e1e2fc;}</style></defs><g transform="translate(-187.544 -689.523)"><path class="a" d="M201.408,695c0,.763.033,1.527-.01,2.287-.035.616.169.841.805.825,1.493-.039,2.987-.025,4.48-.007a2.645,2.645,0,1,1-.03,5.278c-1.461.015-2.924.032-4.385-.009-.655-.018-.9.175-.874.855.045,1.461.024,2.923.01,4.385a2.649,2.649,0,1,1-5.28-.03c-.012-1.462-.028-2.924.008-4.385.015-.615-.169-.842-.806-.825-1.493.039-2.987.025-4.48.007a2.645,2.645,0,1,1,.03-5.278c1.462-.015,2.924-.032,4.385.009.656.018.895-.176.874-.856-.045-1.46-.024-2.923-.01-4.385a2.649,2.649,0,1,1,5.281.031C201.415,693.6,201.408,694.3,201.408,695Z"/></g></svg>