<svg xmlns="http://www.w3.org/2000/svg" width="118" height="39" viewBox="0 0 118 39"><defs><style>.a,.d{fill:none;}.a{stroke:#4e5c6e;stroke-dasharray:3;}.b{fill:#4e5c6e;}.c{stroke:none;}</style></defs><g transform="translate(46.899 -7)"><g class="a" transform="translate(-46.899 7)"><rect class="c" width="118" height="39" rx="5"/><rect class="d" x="0.5" y="0.5" width="117" height="38" rx="4.5"/></g><g transform="translate(2.007 16.173)"><path class="b" d="M104.565,456.008H95.64a1.294,1.294,0,0,1-1.408-1.405q0-2.512,0-5.024a1.293,1.293,0,0,1,2.121-1.01,1.161,1.161,0,0,1,.444.823c.021.236.015.474.015.712q0,1.541,0,3.082c0,.243,0,.243.236.243h13.521c.511,0,1.021-.006,1.532,0,.153,0,.2-.033.2-.194q-.011-1.835,0-3.669a1.286,1.286,0,0,1,1.816-1.19,1.213,1.213,0,0,1,.766,1.149q.02,2.592,0,5.184a1.274,1.274,0,0,1-1.338,1.3Z" transform="translate(-94.231 -435.354)"/><path class="b" d="M140.23,316.643a.319.319,0,0,0-.16.118q-1.393,1.391-2.785,2.782a1.234,1.234,0,0,1-1.292.337,1.22,1.22,0,0,1-.89-.952,1.265,1.265,0,0,1,.38-1.234q2.224-2.221,4.445-4.444c.223-.223.443-.447.668-.666a1.274,1.274,0,0,1,1.837-.011q2.587,2.575,5.163,5.162a1.29,1.29,0,1,1-1.827,1.82c-.937-.927-1.865-1.862-2.8-2.793a.279.279,0,0,0-.158-.114v.209q0,4.738,0,9.477a1.29,1.29,0,0,1-2.573.177c-.008-.1-.009-.2-.009-.3q0-4.676,0-9.352Z" transform="translate(-131.195 -312.186)"/></g></g></svg>